HIERARCHY
ROOT Hips
{
	OFFSET 0.000000 0.000000 0.000000
	CHANNELS 6 Xposition Yposition Zposition Zrotation Yrotation Xrotation 
	JOINT LHipJoint
	{
		OFFSET 0.000000 0.000000 0.000000
		CHANNELS 3 Zrotation Yrotation Xrotation
		JOINT LeftUpLeg
		{
			OFFSET 1.363060 -1.794630 0.839290
			CHANNELS 3 Zrotation Yrotation Xrotation
			JOINT LeftLeg
			{
				OFFSET 2.448110 -6.726130 0.000000
				CHANNELS 3 Zrotation Yrotation Xrotation
				JOINT LeftFoot
				{
					OFFSET 2.562200 -7.039590 0.000000
					CHANNELS 3 Zrotation Yrotation Xrotation
					JOINT LeftToeBase
					{
						OFFSET 0.157640 -0.433110 2.322550
						CHANNELS 3 Zrotation Yrotation Xrotation
						End Site
						{
							OFFSET 0.000000 0.000000 0.000000
						}
					}
				}
			}
		}
	}
	JOINT RHipJoint
	{
		OFFSET 0.000000 0.000000 0.000000
		CHANNELS 3 Zrotation Yrotation Xrotation
		JOINT RightUpLeg
		{
			OFFSET -1.305520 -1.794630 0.839290
			CHANNELS 3 Zrotation Yrotation Xrotation
			JOINT RightLeg
			{
				OFFSET -2.542530 -6.985550 0.000000
				CHANNELS 3 Zrotation Yrotation Xrotation
				JOINT RightFoot
				{
					OFFSET -2.568260 -7.056230 0.000000
					CHANNELS 3 Zrotation Yrotation Xrotation
					JOINT RightToeBase
					{
						OFFSET -0.164730 -0.452590 2.363150
						CHANNELS 3 Zrotation Yrotation Xrotation
						End Site
						{
							OFFSET 0.000000 0.000000 0.000000
						}
					}
				}
			}
		}
	}
	JOINT LowerBack
	{
		OFFSET 0.000000 0.000000 0.000000
		CHANNELS 3 Zrotation Yrotation Xrotation
		JOINT Spine
		{
			OFFSET 0.028270 2.035590 -0.193380
			CHANNELS 3 Zrotation Yrotation Xrotation
			JOINT Spine1
			{
				OFFSET 0.056720 2.048850 -0.042750
				CHANNELS 3 Zrotation Yrotation Xrotation
				JOINT Neck
				{
					OFFSET 0.000000 0.000000 0.000000
					CHANNELS 3 Zrotation Yrotation Xrotation
					JOINT Neck1
					{
						OFFSET -0.054170 1.746240 0.172020
						CHANNELS 3 Zrotation Yrotation Xrotation
						JOINT Head
						{
							OFFSET 0.104070 1.761360 -0.123970
							CHANNELS 3 Zrotation Yrotation Xrotation
							End Site
							{
								OFFSET 0.000000 0.000000 0.000000
							}
						}
					}
				}
				JOINT LeftShoulder
				{
					OFFSET 0.000000 0.000000 0.000000
					CHANNELS 3 Zrotation Yrotation Xrotation
					JOINT LeftArm
					{
						OFFSET 3.362410 1.200890 -0.311210
						CHANNELS 3 Zrotation Yrotation Xrotation
						JOINT LeftForeArm
						{
							OFFSET 4.983000 -0.000000 -0.000000
							CHANNELS 3 Zrotation Yrotation Xrotation
							JOINT LeftHand
							{
								OFFSET 3.483560 -0.000000 -0.000000
								CHANNELS 3 Zrotation Yrotation Xrotation
								JOINT LeftFingerBase
								{
									OFFSET 0.000000 0.000000 0.000000
									CHANNELS 3 Zrotation Yrotation Xrotation
									JOINT LeftHandIndex1
									{
										OFFSET 0.715260 -0.000000 -0.000000
										CHANNELS 3 Zrotation Yrotation Xrotation
										End Site
										{
											OFFSET 0.000000 0.000000 0.000000
										}
									}
								}
								JOINT LThumb
								{
									OFFSET 0.000000 0.000000 0.000000
									CHANNELS 3 Zrotation Yrotation Xrotation
									End Site
									{
										OFFSET 0.000000 0.000000 0.000000
									}
								}
							}
						}
					}
				}
				JOINT RightShoulder
				{
					OFFSET 0.000000 0.000000 0.000000
					CHANNELS 3 Zrotation Yrotation Xrotation
					JOINT RightArm
					{
						OFFSET -3.136600 1.374050 -0.404650
						CHANNELS 3 Zrotation Yrotation Xrotation
						JOINT RightForeArm
						{
							OFFSET -5.241900 -0.000000 -0.000000
							CHANNELS 3 Zrotation Yrotation Xrotation
							JOINT RightHand
							{
								OFFSET -3.444170 -0.000000 -0.000000
								CHANNELS 3 Zrotation Yrotation Xrotation
								JOINT RightFingerBase
								{
									OFFSET 0.000000 0.000000 0.000000
									CHANNELS 3 Zrotation Yrotation Xrotation
									JOINT RightHandIndex1
									{
										OFFSET -0.622530 -0.000000 -0.000000
										CHANNELS 3 Zrotation Yrotation Xrotation
										End Site
										{
											OFFSET 0.000000 0.000000 0.000000
										}
									}
								}
								JOINT RThumb
								{
									OFFSET 0.000000 0.000000 0.000000
									CHANNELS 3 Zrotation Yrotation Xrotation
									End Site
									{
										OFFSET 0.000000 0.000000 0.000000
									}
								}
							}
						}
					}
				}
			}
		}
	}
}
MOTION
Frames: 10
Frame Time: 0.008333
0.858778 17.979621 -4.806228 -4.436505 3.997850 -0.836921 -3.973768 -1.164741 0.753632 -10.335700 -1.787109 -4.247321 0.758029 7.050393 18.855429 0.725963 -3.231995 -4.776002 0.384600 -3.982700 -11.028000 2.900137 1.963173 -0.887788 21.771314 1.195716 -1.256897 -1.516420 -7.155505 17.957384 -0.099045 -1.831199 -6.565591 -0.249500 3.213900 -8.874900 2.321336 -1.533119 7.939534 2.682981 -1.592554 -3.140683 3.266492 -0.798778 -7.891384 -14.514289 -11.518562 -11.243987 11.582654 -13.881437 9.512220 6.619000 -6.682200 10.182500 8.410369 5.117113 -3.175699 -90.705263 -62.556300 57.609887 20.731295 -38.994665 -7.074520 1.989681 0.579182 9.411457 18.744840 27.760454 7.872200 -7.125000 0.000000 0.000000 -14.854600 57.553100 -4.634200 -11.503505 -4.044348 1.948993 75.432020 65.189190 49.528534 -25.825929 43.536991 -10.641717 0.614340 0.140628 8.235388 -17.459164 13.676159 -4.317000 7.125000 0.000000 0.000000 6.398600 -15.975000 4.418500 
0.871645 17.977263 -4.811434 -4.487017 3.906040 -0.786052 -3.977484 -1.166710 0.749553 -10.293895 -1.771211 -4.353128 0.744200 7.012611 18.751222 0.734644 -3.371530 -4.455666 0.412000 -4.120100 -11.414900 2.896826 1.948671 -0.887110 21.828321 1.483712 -1.385045 -1.548424 -7.244268 18.242054 -0.085070 -1.993102 -6.730938 -0.278700 3.395600 -9.382100 2.220191 -1.584086 7.609815 2.765007 -1.691155 -3.018533 3.439146 -0.844627 -7.356315 -14.367813 -11.594560 -11.331081 11.577482 -13.977805 9.316786 6.564600 -6.711300 10.133600 8.387320 5.181620 -3.020745 -90.272496 -62.838377 57.012232 20.574757 -39.011137 -7.026859 2.005146 0.592947 9.575578 18.527399 27.824443 7.771300 -7.125000 0.000000 0.000000 -15.117800 57.544200 -4.715500 -11.478479 -4.105380 1.961907 75.461006 65.599348 49.094844 -25.560326 43.406172 -10.494103 0.641186 0.111119 9.043965 -17.026660 14.059240 -4.336600 7.125000 0.000000 0.000000 6.684200 -15.597600 4.673200 
0.889817 17.975790 -4.812613 -4.163537 3.948699 -0.724049 -3.986173 -1.165941 0.747001 -10.700372 -1.795422 -4.394413 0.729581 6.965502 18.634288 0.730514 -3.417764 -4.141917 0.416100 -4.140300 -11.471800 2.901980 1.958369 -0.886600 21.404837 1.546101 -1.512044 -1.573287 -7.333375 18.497351 -0.088207 -2.007794 -6.947649 -0.274600 3.370500 -9.312000 1.817828 -1.648560 7.413692 2.709463 -1.821739 -3.017391 3.606884 -0.897609 -7.195034 -14.226862 -11.657478 -10.846415 11.650318 -14.076344 8.881197 6.560200 -6.760900 9.890600 8.383930 5.222486 -2.966218 -90.195274 -62.699684 56.885162 20.542579 -38.940475 -6.995018 2.006509 0.587414 9.793338 18.400570 27.917340 7.733200 -7.125000 0.000000 0.000000 -15.302300 57.604800 -4.797400 -11.466499 -4.106067 1.974545 75.470669 65.743227 48.978851 -25.463958 43.355412 -10.438871 0.651603 0.101744 9.260885 -16.893434 14.249785 -4.364200 7.125000 0.000000 0.000000 6.771700 -15.406700 4.763200 
0.909953 17.975593 -4.813693 -3.905073 3.786542 -0.745245 -3.991817 -1.166453 0.751412 -11.060933 -1.650327 -4.323742 0.720013 6.935289 18.553204 0.711226 -3.319874 -3.907299 0.391100 -4.015600 -11.120500 2.905198 1.969373 -0.889087 21.030705 1.674930 -1.527496 -1.597172 -7.417361 18.732568 -0.104249 -1.873068 -7.050479 -0.246400 3.194100 -8.819500 1.519523 -1.642400 7.405300 2.635947 -1.838933 -3.063600 3.679392 -0.891209 -7.306460 -14.305655 -11.727180 -9.881769 12.047690 -14.174145 8.288004 6.727700 -6.819700 9.550600 8.395442 5.235912 -2.881961 -90.155103 -62.405541 56.886168 20.579728 -38.876728 -6.989481 1.995991 0.595798 9.940926 17.971344 28.090151 7.569100 -7.125000 0.000000 0.000000 -15.828300 57.665100 -4.990900 -11.475483 -4.023965 1.850419 75.907201 65.632860 49.101948 -25.175912 43.103966 -10.261317 0.661959 0.105553 9.320575 -16.803934 14.399205 -4.386100 7.125000 0.000000 0.000000 6.829300 -15.267000 4.824900 
0.925767 17.977263 -4.816247 -3.905659 3.593195 -0.758960 -3.990632 -1.165500 0.755070 -11.105400 -1.442676 -4.342164 0.713931 6.918887 18.501347 0.687746 -3.168798 -3.707687 0.380600 -3.962200 -10.970300 2.904555 1.965979 -0.890896 20.986512 1.874036 -1.607037 -1.625453 -7.491781 18.968136 -0.107307 -1.837831 -7.056333 -0.250200 3.218600 -8.888100 1.489418 -1.674318 7.566202 2.647323 -1.875563 -2.990480 3.765477 -0.926645 -7.009540 -14.189258 -12.002643 -10.460186 12.107656 -14.509814 8.120397 6.643100 -6.935500 9.669600 8.337904 5.361519 -2.770860 -89.651244 -62.802846 56.219968 20.483660 -38.974784 -6.982081 2.004112 0.641219 9.914848 17.380348 28.247412 7.304000 -7.125000 0.000000 0.000000 -16.509200 57.637500 -5.202300 -11.419897 -4.160962 2.109067 75.276550 66.872699 49.198431 -25.103394 43.248389 -10.293392 0.616161 0.068677 8.217956 -16.564233 13.746414 -4.136800 7.125000 0.000000 0.000000 7.008000 -15.900100 4.856900 
0.948162 17.979424 -4.817327 -3.856583 3.450773 -0.739282 -3.993307 -1.167866 0.757734 -11.227839 -1.239921 -4.461886 0.718518 6.926661 18.533793 0.664976 -3.030145 -3.500310 0.375500 -3.935500 -10.895200 2.901868 1.961566 -0.885580 20.852440 1.858597 -1.800362 -1.650926 -7.558734 19.181723 -0.113254 -1.756691 -6.985715 -0.309600 3.577100 -9.889700 1.446345 -1.740636 7.596209 2.658832 -1.967335 -3.037483 3.843847 -0.968922 -6.997555 -14.207877 -12.215794 -10.017014 12.093435 -14.780226 7.666477 6.611300 -7.086100 9.469000 8.306470 5.451708 -2.624124 -89.303394 -62.688326 55.681501 20.407006 -38.905046 -6.949501 1.995479 0.636368 10.019180 16.999086 28.074324 7.079900 -7.125000 0.000000 0.000000 -16.784100 57.385000 -5.189200 -11.392282 -4.232921 2.184077 74.996006 67.230509 49.679273 -25.237683 43.407388 -10.411803 0.583905 0.050437 7.294243 -16.332228 13.185116 -3.916600 7.125000 0.000000 0.000000 7.180000 -16.462200 4.889900 
0.973897 17.981683 -4.822337 -3.904660 3.130924 -0.675265 -3.993728 -1.177019 0.753714 -11.251922 -0.906483 -4.685565 0.727715 6.947651 18.605171 0.637783 -2.876006 -3.157880 0.355400 -3.829900 -10.598700 2.896139 1.947126 -0.884184 20.831692 2.020785 -2.013774 -1.682703 -7.631697 19.424609 -0.120687 -1.664028 -6.944014 -0.336700 3.729100 -10.315600 1.595936 -1.690342 7.561293 2.650085 -1.897512 -2.983798 3.703909 -0.936834 -6.909012 -14.221719 -12.504586 -9.840841 12.310218 -15.156420 7.313816 6.619900 -7.245700 9.410600 8.302668 5.450563 -2.456235 -88.990405 -62.826827 55.287968 20.258685 -38.846442 -6.900682 1.996115 0.628403 10.136018 16.894484 27.830527 6.971900 -7.125000 0.000000 0.000000 -16.743500 57.128100 -5.071400 -11.416602 -4.199513 1.980528 75.601760 67.011866 49.112562 -24.696913 42.937643 -10.056340 0.628250 0.056954 8.158244 -16.192130 13.981286 -4.117200 7.125000 0.000000 0.000000 7.257100 -15.677900 5.067400 
0.992854 17.981094 -4.831374 -3.985949 2.641134 -0.582336 -3.986952 -1.169616 0.758040 -11.209915 -0.445238 -4.976767 0.733751 6.966366 18.656410 0.620891 -2.783462 -2.865253 0.336400 -3.727300 -10.310600 2.896472 1.936331 -0.885638 20.896305 2.534458 -2.209636 -1.725678 -7.710920 19.717457 -0.119574 -1.661250 -6.961572 -0.337000 3.730700 -10.320400 1.661028 -1.605259 7.486505 2.641269 -1.774220 -2.874040 3.714924 -0.922275 -6.338992 -14.292379 -12.845851 -10.424626 12.865979 -15.582106 7.157256 6.723900 -7.380100 9.605800 8.225027 5.659242 -2.424769 -88.565189 -63.348159 54.899253 20.147008 -38.920384 -6.878511 2.015236 0.655079 10.111830 16.877050 27.937990 6.975000 -7.125000 0.000000 0.000000 -16.826800 57.199000 -5.126700 -11.331913 -4.368607 2.510103 74.342491 68.651451 48.630303 -24.713165 43.158376 -10.110374 0.582107 -0.000197 7.314642 -15.893153 13.639709 -3.955400 7.125000 0.000000 0.000000 7.484200 -15.976600 5.180000 
1.015937 17.976969 -4.836678 -3.778587 2.303436 -0.585751 -3.983446 -1.156913 0.767292 -11.530759 -0.057590 -5.131822 0.743119 6.992943 18.736267 0.614855 -2.768748 -2.675492 0.336300 -3.726500 -10.308500 2.904186 1.956432 -0.889550 20.561260 2.718777 -2.296955 -1.760252 -7.796995 19.989425 -0.137036 -1.469404 -6.933903 -0.388200 4.001000 -11.079600 1.460151 -1.608988 7.488217 2.581357 -1.780144 -2.769375 3.803549 -0.979437 -5.886312 -14.477077 -13.172008 -10.731647 13.420903 -16.001190 6.945721 6.864800 -7.540400 9.703900 8.131443 5.978009 -2.480337 -88.306737 -63.603387 54.488257 20.057910 -38.927144 -6.847632 2.024822 0.667541 10.252300 16.725787 27.985201 6.905800 -7.125000 0.000000 0.000000 -17.004800 57.192100 -5.180200 -11.230155 -4.657865 3.291097 71.950055 69.851550 48.037143 -25.277517 43.516558 -10.382782 0.523845 -0.012869 5.906026 -16.280703 13.432040 -3.989900 7.125000 0.000000 0.000000 7.253800 -16.124200 4.994600 
1.047172 17.973629 -4.839624 -3.427467 2.287311 -0.634312 -3.990130 -1.170077 0.764840 -12.046525 0.194138 -5.181248 0.753814 7.009900 18.814870 0.618422 -2.855123 -2.393030 0.328600 -3.684000 -10.189300 2.907433 1.975639 -0.888859 19.970682 2.372649 -2.395300 -1.781922 -7.889517 20.226836 -0.179950 -1.025529 -6.905023 -0.411000 4.115200 -11.400900 1.246159 -1.646246 7.715301 2.442111 -1.847181 -2.864269 3.726415 -0.988954 -6.252129 -14.636942 -13.459021 -9.855109 13.684024 -16.414969 6.582059 6.941500 -7.763400 9.535800 8.149638 5.915318 -2.337867 -88.170790 -63.311143 54.295163 20.063816 -38.844138 -6.842501 2.004883 0.657181 10.322060 16.366983 27.789069 6.698200 -7.125000 0.000000 0.000000 -17.235000 56.933700 -5.144700 -11.267784 -4.538439 2.989149 72.859428 69.452572 48.427153 -25.225437 43.542568 -10.388928 0.537982 -0.013245 6.217235 -16.121467 13.385150 -3.938600 7.125000 0.000000 0.000000 7.353300 -16.189100 5.053800 
